<svg width="71" height="39" viewBox="0 0 71 39" fill="none" xmlns="http://www.w3.org/2000/svg">
<path d="M25.7223 28.2545C28.1766 22.3787 25.4029 15.6257 19.527 13.1714C13.6512 10.7171 6.89824 13.4908 4.44393 19.3667C1.98961 25.2425 4.76333 31.9955 10.6392 34.4498C16.5151 36.9041 23.268 34.1304 25.7223 28.2545Z" fill="#F5CD70"/>
<path d="M58.5105 35.3246C64.8783 35.3246 70.0405 30.1625 70.0405 23.7946C70.0405 17.4268 64.8783 12.2646 58.5105 12.2646C52.1426 12.2646 46.9805 17.4268 46.9805 23.7946C46.9805 30.1625 52.1426 35.3246 58.5105 35.3246Z" fill="#F5CD70"/>
<path d="M13.0506 35.2248C10.5918 35.2248 8.18814 34.4955 6.14382 33.1292C4.0995 31.763 2.50632 29.8211 1.56582 27.5492C0.625313 25.2773 0.379763 22.7776 0.860188 20.3661C1.34061 17.9546 2.52545 15.7398 4.26482 14.0019C6.00419 12.2639 8.21992 11.0809 10.6318 10.6024C13.0436 10.1239 15.5432 10.3715 17.8143 11.3138C20.0854 12.2561 22.026 13.8509 23.3906 15.8963C24.7553 17.9417 25.4826 20.3459 25.4806 22.8047C25.4753 26.0988 24.1637 29.2564 21.8335 31.5847C19.5033 33.913 16.3447 35.2221 13.0506 35.2248ZM13.0506 12.1647C10.945 12.1588 8.88486 12.7778 7.13118 13.9433C5.3775 15.1088 4.00907 16.7685 3.19915 18.7122C2.38923 20.6558 2.17426 22.7961 2.58141 24.8621C2.98856 26.928 3.99955 28.8267 5.48638 30.3177C6.97321 31.8087 8.86902 32.8251 10.9338 33.2381C12.9986 33.6511 15.1395 33.4421 17.0854 32.6377C19.0314 31.8332 20.6949 30.4695 21.8653 28.7191C23.0358 26.9687 23.6606 24.9104 23.6606 22.8047C23.6606 19.9871 22.5441 17.2843 20.5554 15.2882C18.5668 13.2921 15.8682 12.1653 13.0506 12.1548V12.1647Z" fill="#5DA0FB"/>
<path d="M56.4905 35.2248C54.0317 35.2248 51.6281 34.4955 49.5838 33.1292C47.5394 31.763 45.9463 29.8211 45.0058 27.5492C44.0653 25.2773 43.8197 22.7776 44.3001 20.3661C44.7806 17.9546 45.9654 15.7398 47.7047 14.0019C49.4441 12.2639 51.6599 11.0809 54.0717 10.6024C56.4835 10.1239 58.9831 10.3715 61.2542 11.3138C63.5253 12.2561 65.466 13.8509 66.8306 15.8963C68.1952 17.9417 68.9225 20.3459 68.9206 22.8047C68.9153 26.0988 67.6036 29.2564 65.2734 31.5847C62.9432 33.913 59.7846 35.2221 56.4905 35.2248ZM56.4905 12.1647C54.3861 12.1647 52.329 12.7888 50.5793 13.9579C48.8295 15.1271 47.4658 16.7888 46.6605 18.733C45.8551 20.6772 45.6444 22.8165 46.055 24.8805C46.4655 26.9445 47.4789 28.8403 48.9669 30.3284C50.455 31.8164 52.3508 32.8298 54.4148 33.2403C56.4787 33.6509 58.6181 33.4401 60.5623 32.6348C62.5065 31.8295 64.1683 30.4658 65.3374 28.716C66.5065 26.9663 67.1305 24.9091 67.1305 22.8047C67.1305 19.9819 66.0099 17.2746 64.0148 15.2776C62.0197 13.2806 59.3134 12.1574 56.4905 12.1548V12.1647Z" fill="#5DA0FB"/>
<path d="M13.0504 23.6946C12.8999 23.6961 12.7516 23.6582 12.6204 23.5846C12.4136 23.4704 12.26 23.2796 12.1926 23.0533C12.1253 22.8269 12.1496 22.5831 12.2604 22.3746L23.7904 1.15456C23.8177 1.09772 23.8513 1.04406 23.8904 0.994554C23.9218 0.953033 23.9588 0.916021 24.0004 0.884554C24.1575 0.751196 24.3545 0.67381 24.5604 0.664552H47.2103C47.3849 0.664217 47.5558 0.715234 47.7016 0.81125C47.8474 0.907266 47.9617 1.04405 48.0304 1.20456L57.3104 22.4546C57.3705 22.5905 57.3956 22.7394 57.3834 22.8875C57.3713 23.0357 57.3221 23.1784 57.2406 23.3028C57.159 23.4271 57.0477 23.5289 56.9166 23.5991C56.7856 23.6693 56.639 23.7056 56.4903 23.7046H33.8404C33.6674 23.7033 33.4985 23.6527 33.3533 23.5588C33.208 23.465 33.0925 23.3317 33.0203 23.1746L24.4903 3.59456L13.8404 23.2346C13.7618 23.3748 13.647 23.4914 13.5081 23.5723C13.3692 23.6532 13.2111 23.6954 13.0504 23.6946ZM34.4303 21.9046H55.1203L46.6604 2.44455H25.9504L34.4303 21.9046Z" fill="#5DA0FB"/>
</svg>
