<svg width="121" height="70" viewBox="0 0 121 70" fill="none" xmlns="http://www.w3.org/2000/svg">
<path d="M55.7912 7.54313C49.2825 7.42165 42.855 9.00297 37.1456 12.1304C31.4362 15.2579 26.6431 19.8229 23.2412 25.3731H87.6312C82.6212 14.6131 70.9212 7.54313 55.7912 7.54313Z" fill="#F5CD70"/>
<path d="M119.172 54.8332H105.722C105.5 54.8366 105.285 54.7561 105.12 54.6077C104.955 54.4594 104.852 54.2542 104.832 54.0332C104.432 51.3239 103.515 48.7166 102.132 46.3532C99.1315 41.3532 94.5415 38.8532 88.4015 38.8532C82.4015 38.8532 77.9215 41.3732 75.0115 46.3432C73.6571 48.7183 72.7615 51.327 72.3715 54.0332C72.347 54.2524 72.2428 54.455 72.0788 54.6025C71.9147 54.75 71.7022 54.8321 71.4815 54.8332H49.8115C49.5903 54.8343 49.3766 54.753 49.212 54.6051C49.0475 54.4572 48.9439 54.2533 48.9215 54.0332C48.5131 51.3497 47.5931 48.7697 46.2115 46.4332C43.2115 41.5032 38.6415 39.0032 32.5515 39.0032C26.4615 39.0032 22.0615 41.5132 19.1015 46.4732C17.7346 48.7931 16.8217 51.3519 16.4115 54.0132C16.3869 54.2315 16.2823 54.4329 16.118 54.5788C15.9537 54.7246 15.7412 54.8046 15.5215 54.8032H5.58153C3.95899 54.8158 2.38247 54.2644 1.12153 53.2432C0.753451 52.8798 0.464069 52.4446 0.27139 51.9646C0.0787095 51.4847 -0.0131426 50.9702 0.00153784 50.4532C-0.0217538 49.6049 0.220024 48.7705 0.693211 48.0661C1.1664 47.3617 1.84745 46.8224 2.64154 46.5232C3.17005 46.3012 3.72441 46.1467 4.29154 46.0632C5.78468 34.4718 10.8208 23.6243 18.7115 15.0032C23.106 10.2076 28.4626 6.39298 34.4316 3.80829C40.4005 1.22359 46.8475 -0.073003 53.3515 0.00317203C68.4815 0.00317203 78.2615 6.00317 83.7915 11.1132C87.2004 14.1679 90.0203 17.8216 92.1115 21.8932C105.652 25.8932 112.532 34.2632 115.912 40.6632C118.147 44.77 119.557 49.2747 120.062 53.9232C120.071 54.0455 120.055 54.1684 120.013 54.2838C119.972 54.3993 119.907 54.5047 119.822 54.5932C119.735 54.6751 119.633 54.7386 119.521 54.7798C119.409 54.8211 119.29 54.8392 119.172 54.8332ZM106.492 53.0832H118.172C117.552 49.0084 116.243 45.0689 114.302 41.4332C109.562 32.5232 101.802 26.4932 91.2315 23.5032C91.1028 23.4672 90.9837 23.4027 90.8833 23.3144C90.7829 23.2261 90.7037 23.1163 90.6515 22.9932C88.6431 18.9674 85.8835 15.3627 82.5215 12.3732C77.2315 7.54317 67.8715 1.79318 53.3515 1.79318C47.091 1.72706 40.8869 2.98157 35.1439 5.47485C29.4009 7.96814 24.248 11.6442 20.0215 16.2632C12.2327 24.7828 7.33303 35.5445 6.02153 47.0132C5.99724 47.2307 5.89448 47.432 5.7325 47.5792C5.57052 47.7265 5.36042 47.8097 5.14154 47.8132C4.80154 47.8132 1.81154 47.9532 1.81154 50.4932C1.79903 50.7721 1.84506 51.0506 1.94667 51.3106C2.04829 51.5707 2.20324 51.8066 2.40154 52.0032C3.32019 52.7034 4.44652 53.0765 5.60154 53.0632H14.7915C15.2935 50.4321 16.2404 47.9059 17.5915 45.5932C19.0947 42.9683 21.2865 40.8041 23.9301 39.3342C26.5737 37.8644 29.5687 37.1448 32.5915 37.2532C41.0415 37.2532 45.5315 41.7932 47.8115 45.6032C49.1751 47.9136 50.1228 50.4453 50.6115 53.0832H70.7515C71.2203 50.4328 72.1403 47.8825 73.4715 45.5432C74.946 42.8862 77.1288 40.6904 79.7771 39.2003C82.4254 37.7103 85.4352 36.9843 88.4715 37.1032C96.9815 37.1032 101.472 41.6932 103.772 45.5332C105.109 47.8732 106.029 50.4279 106.492 53.0832Z" fill="#5DA0FB"/>
<path d="M32.5814 69.0832C29.8318 69.0852 27.1434 68.2716 24.8562 66.7455C22.5691 65.2194 20.7859 63.0492 19.7323 60.5094C18.6788 57.9697 18.4021 55.1746 18.9373 52.4776C19.4725 49.7806 20.7955 47.3029 22.7391 45.358C24.6826 43.413 27.1593 42.0882 29.856 41.551C32.5526 41.0139 35.3479 41.2886 37.8884 42.3403C40.4289 43.3921 42.6003 45.1737 44.1281 47.4597C45.6559 49.7458 46.4714 52.4336 46.4714 55.1832C46.4687 58.8672 45.0048 62.3996 42.4008 65.0055C39.7968 67.6114 36.2654 69.0779 32.5814 69.0832ZM32.5814 43.0832C30.1854 43.0812 27.8427 43.79 25.8497 45.1199C23.8567 46.4499 22.3029 48.3411 21.3851 50.5543C20.4673 52.7675 20.2267 55.2033 20.6936 57.5533C21.1606 59.9033 22.3141 62.0621 24.0083 63.7563C25.7025 65.4505 27.8613 66.6041 30.2113 67.071C32.5613 67.5379 34.9971 67.2973 37.2103 66.3795C39.4235 65.4617 41.3148 63.9079 42.6447 61.9149C43.9746 59.9219 44.6834 57.5792 44.6814 55.1832C44.6761 51.9757 43.3996 48.9011 41.1315 46.6331C38.8635 44.365 35.7889 43.0885 32.5814 43.0832Z" fill="#5DA0FB"/>
<path d="M88.7313 69.0832C85.9817 69.0852 83.2933 68.2716 81.0061 66.7455C78.719 65.2194 76.9358 63.0492 75.8822 60.5094C74.8286 57.9697 74.552 55.1746 75.0872 52.4776C75.6224 49.7806 76.9454 47.3029 78.889 45.358C80.8325 43.413 83.3092 42.0882 86.0058 41.551C88.7025 41.0139 91.4978 41.2886 94.0383 42.3403C96.5788 43.3921 98.7502 45.1737 100.278 47.4597C101.806 49.7458 102.621 52.4336 102.621 55.1832C102.619 58.8672 101.155 62.3996 98.5507 65.0055C95.9467 67.6114 92.4153 69.0779 88.7313 69.0832ZM88.7313 43.0832C86.3353 43.0812 83.9926 43.79 81.9996 45.1199C80.0066 46.4499 78.4528 48.3411 77.535 50.5543C76.6172 52.7675 76.3765 55.2033 76.8435 57.5533C77.3104 59.9033 78.464 62.0621 80.1582 63.7563C81.8525 65.4505 84.0112 66.6041 86.3612 67.071C88.7113 67.5379 91.147 67.2973 93.3602 66.3795C95.5734 65.4617 97.4647 63.9079 98.7946 61.9149C100.124 59.9219 100.833 57.5792 100.831 55.1832C100.826 51.9757 99.5495 48.9011 97.2814 46.6331C95.0134 44.365 91.9388 43.0885 88.7313 43.0832Z" fill="#5DA0FB"/>
<path d="M85.2413 23.973H20.8713C20.7108 23.9728 20.5531 23.9302 20.4144 23.8494C20.2756 23.7686 20.1607 23.6525 20.0813 23.513C20.0024 23.3743 19.9609 23.2175 19.9609 23.058C19.9609 22.8984 20.0024 22.7416 20.0813 22.603C23.4514 17.1158 28.1492 12.5658 33.7413 9.37296C39.7438 6.01365 46.5233 4.28948 53.4013 4.37296C60.441 4.26477 67.3881 5.98774 73.5613 9.37296C79.0052 12.421 83.3665 17.0864 86.0413 22.723C86.1007 22.8607 86.1262 23.0106 86.1157 23.1603C86.1053 23.3099 86.0592 23.4548 85.9813 23.583C85.8976 23.7018 85.7868 23.7991 85.6582 23.8669C85.5296 23.9347 85.3867 23.9711 85.2413 23.973ZM22.5113 22.183H83.8013C78.4713 12.113 67.2313 6.18298 53.4213 6.18298C46.8541 6.10559 40.3816 7.75388 34.6513 10.963C29.8026 13.7254 25.6527 17.564 22.5213 22.183H22.5113Z" fill="#5DA0FB"/>
</svg>
